<?xml version="1.0" encoding="utf-8"?>
<!-- Generator: Adobe Illustrator 20.0.0, SVG Export Plug-In . SVG Version: 6.00 Build 0)  -->
<svg version="1.1" id="レイヤー_1" xmlns="http://www.w3.org/2000/svg" xmlns:xlink="http://www.w3.org/1999/xlink" x="0px"
	 y="0px" viewBox="0 0 30 30" style="enable-background:new 0 0 30 30;" xml:space="preserve">
<style type="text/css">
	.st0{fill:#333333;}
</style>
<g id="Page-1_2_">
	<g id="Dribbble-Light-Preview_2_" transform="translate(-340.000000, -7439.000000)">
		<g id="icons_2_" transform="translate(56.000000, 160.000000)">
			<path id="instagram-_x5B__x23_167_x5D_" class="st0" d="M294.8697,7284.1226c-1.6279,0.0737-3.0388,0.4717-4.1782,1.606
				c-1.1433,1.1406-1.5363,2.5571-1.61,4.168c-0.0458,1.0054-0.3134,8.6016,0.4627,10.5938
				c0.5234,1.3438,1.5542,2.3774,2.9105,2.9023c0.6328,0.2461,1.3553,0.4131,2.415,0.4614
				c8.8608,0.4009,12.1454,0.1826,13.5305-3.3638c0.2458-0.6313,0.4149-1.353,0.4617-2.4102
				c0.405-8.8833-0.0657-10.8091-1.61-12.3516C306.027,7284.5068,304.5862,7283.6753,294.8697,7284.1226 M294.9512,7302.0674
				c-0.9702-0.0435-1.4965-0.2056-1.8478-0.3413c-0.8836-0.3433-1.5473-1.0044-1.8886-1.8828
				c-0.5911-1.5137-0.395-8.7031-0.3423-9.8662c0.0517-1.1396,0.2826-2.1807,1.0866-2.9849c0.995-0.9927,2.2806-1.479,11.034-1.084
				c1.1423,0.0518,2.1861,0.2822,2.9921,1.084c0.995,0.9927,1.4886,2.2881,1.0866,11.0078
				c-0.0438,0.9678-0.206,1.4927-0.3423,1.8433C305.829,7302.1509,303.7573,7302.4717,294.9512,7302.0674 M303.0897,7288.6895
				c0,0.6572,0.5343,1.1914,1.1941,1.1914c0.6597,0,1.195-0.5342,1.195-1.1914c0-0.6567-0.5353-1.1909-1.195-1.1909
				C303.624,7287.4985,303.0897,7288.0327,303.0897,7288.6895 M293.8627,7293.9878c0,2.8149,2.2876,5.0972,5.1095,5.0972
				s5.1095-2.2822,5.1095-5.0972s-2.2876-5.0957-5.1095-5.0957S293.8627,7291.1729,293.8627,7293.9878 M295.6557,7293.9878
				c0-1.8262,1.4846-3.3081,3.3165-3.3081c1.8318,0,3.3165,1.4819,3.3165,3.3081c0,1.8276-1.4846,3.3096-3.3165,3.3096
				S295.6557,7295.8154,295.6557,7293.9878"/>
		</g>
	</g>
</g>
</svg>
