<svg id="レイヤー_1" data-name="レイヤー 1" xmlns="http://www.w3.org/2000/svg" width="100" height="100" viewBox="0 0 100 100"><title>icon</title><polygon points="31.539 39.433 31.541 39.431 31.542 39.43 31.539 39.433"/><polygon points="72.894 58.36 72.895 58.361 72.896 58.361 72.894 58.36"/><polygon points="36.437 12.411 36.44 12.414 36.442 12.416 36.437 12.411"/><polygon points="13.677 26.571 13.677 26.57 13.677 26.57 13.677 26.571"/><polygon points="13.2 26.419 13.2 26.419 13.2 26.419 13.2 26.419"/><polygon points="73.123 57.916 73.124 57.916 73.124 57.916 73.123 57.916"/><polygon points="31.117 39.166 31.118 39.165 31.118 39.165 31.117 39.166"/><path d="M86.4247,69.2414l-.0311-.0579-.0188-.035-.0239-.0313-.1025-.1348-.02-.0269-.0069-.0069A38.59,38.59,0,0,0,73.1235,57.9164a10.6666,10.6666,0,0,0-4.8677-1.224h-.0247a10.4841,10.4841,0,0,0-6.73,2.58l-.0059.0029-.0461.037-.0858.0686-.0065.0131c-1.6406,1.3868-3.18,2.8372-4.6576,4.2845l-.004.004a3.141,3.141,0,0,1-.8455.617,1.4552,1.4552,0,0,1-.6245.136,1.9655,1.9655,0,0,1-.5187-.0773l-.058-.0159a12.1512,12.1512,0,0,1-1.5676-.5322l-.002-.0009a5.2933,5.2933,0,0,1-.5867-.2925,2.0271,2.0271,0,0,1-.3115-.2132l-.0059-.0054-.0284-.0245-.0048-.0042-.01-.0086c-3.1057-2.6888-6.1141-5.431-8.8518-8.3282a27.4814,27.4814,0,0,1-6.0117-9.13l-.004-.01a6.1326,6.1326,0,0,1-.4684-1.9951v-.0007a1.8068,1.8068,0,0,1,.0588-.4934,1.76,1.76,0,0,1,.2063-.4395,6.1605,6.1605,0,0,1,1.5236-1.4929l.0157-.0122.0047-.0035.0056-.0045.0183-.0142.0023-.0015.0114-.0092.4357-.3389-.0076-.0076c1.3719-1.0653,2.6579-2.1782,3.8677-3.2783l.007-.0063.0361-.0353,0,0,.0151-.0129.0152-.0151.0291-.0291.0073-.01a10.1306,10.1306,0,0,0,3.3309-6.86h.0176l.0148-.54,0-.0067V30.14a11.1727,11.1727,0,0,0-.543-3.373v-.0109l-.0245-.0753A37.703,37.703,0,0,0,36.8021,12.07L36.8,12.0662,36.774,12.04l-.0222-.0221-.0118-.0092a8.5419,8.5419,0,0,0-6.0838-2.7685h-.0181A9.3722,9.3722,0,0,0,24.72,11.5834l-1.0746.8859h.03c-.0977.0814-.2056.1737-.2849.2344l-.0258.02-.007.007c-4.4195,3.4228-8.28,7.7736-10.1576,13.6883a29.8436,29.8436,0,0,0-1.423,9.0866V35.51h0v.002l0,.0168h0A35.0179,35.0179,0,0,0,14.9432,49.58h-.0181l.3238.7079C21.24,63.3892,30.4422,73.96,41.7473,82.4822l-.0006,0c6.2427,4.723,13.4852,8.0331,21.9045,8.2712l.0154.0021.113.0026.04.0009.02,0,.2586-.0148.02-.0011.141-.0193.0462-.0063.0011,0c1.68-.2327,3.5858-.3917,5.6217-.7982a24.0054,24.0054,0,0,0,9.1031-4.0106,47.7525,47.7525,0,0,0,6.8671-6.0894l.0365-.0378.0089-.0141A7.8488,7.8488,0,0,0,88.2159,74.49h.0007l.0045-.0853.0015-.019v-.0435A8.7223,8.7223,0,0,0,86.4247,69.2414ZM63.6659,83.7438c-6.6-.2487-12.2673-2.7645-17.7037-6.8495-10.5512-7.9664-18.8886-17.5988-24.3484-29.52l-.0035-.0076A28.4544,28.4544,0,0,1,18.7773,35.51a22.7788,22.7788,0,0,1,1.0941-6.9688C21.2164,24.34,23.9036,21.18,27.68,18.2363l.0244-.019.0051-.0051c.6-.4711,1.0764-.9088,1.4219-1.1925l.0011-.0007.0321-.0266a2.604,2.604,0,0,1,1.4618-.75.7824.7824,0,0,1,.3668.089,3.0185,3.0185,0,0,1,.7818.61A30.7,30.7,0,0,1,39.1855,28.84l.0013.0042a4.2114,4.2114,0,0,1,.2238,1.2833,2.8057,2.8057,0,0,1-.25,1.1875,3.9406,3.9406,0,0,1-.94,1.2147c-1.2806,1.1649-2.5443,2.2677-3.8223,3.2292l-.0125.0095a12.8764,12.8764,0,0,0-3.2682,3.3967,8.5593,8.5593,0,0,0-1.322,4.5764v.0052h0v.0565l.0018.0245v.0007l0,.0123.0079.4919H29.83a13.3786,13.3786,0,0,0,.8785,3.9145l.0094.0253.0059.0118a33.5215,33.5215,0,0,0,6.6987,10.6119h-.0273l.7967.8433a127.95,127.95,0,0,0,9.3669,8.82l.0027.0026.01.0092.0106.009a12.7518,12.7518,0,0,0,4.8067,2.3927l-.0078.0362.4791.1015.4794.1373.0084-.039a8.6921,8.6921,0,0,0,1.8771.2285h.03a9.0127,9.0127,0,0,0,6.2884-2.7081l.0111-.0074.0336-.033c1.439-1.41,2.8834-2.769,4.3613-4.0137l.001-.0009a4.6151,4.6151,0,0,1,1.2438-.7756,2.85,2.85,0,0,1,1.0615-.2062,3.6687,3.6687,0,0,1,1.6839.4574,31.603,31.603,0,0,1,10.7486,9.0862,2.05,2.05,0,0,1,.5331,1.0917.4249.4249,0,0,1-.0383.1909,1.7252,1.7252,0,0,1-.3376.4551,40.8632,40.8632,0,0,1-5.8267,5.1992,17.0119,17.0119,0,0,1-6.4712,2.8828C67.1147,83.3476,65.4579,83.5083,63.6659,83.7438Z"/></svg>