<svg id="レイヤー_1" data-name="レイヤー 1" xmlns="http://www.w3.org/2000/svg" width="264" height="264" viewBox="0 0 264 264"><title>sozai-1</title><metadata><?xpacket begin="﻿" id="W5M0MpCehiHzreSzNTczkc9d"?>
<x:xmpmeta xmlns:x="adobe:ns:meta/" x:xmptk="Adobe XMP Core 5.6-c137 79.159547, 2016/07/07-11:39:24        ">
   <rdf:RDF xmlns:rdf="http://www.w3.org/1999/02/22-rdf-syntax-ns#">
      <rdf:Description rdf:about=""
            xmlns:dc="http://purl.org/dc/elements/1.1/"
            xmlns:xmpMM="http://ns.adobe.com/xap/1.0/mm/"
            xmlns:stEvt="http://ns.adobe.com/xap/1.0/sType/ResourceEvent#"
            xmlns:xmp="http://ns.adobe.com/xap/1.0/">
         <dc:title>
            <rdf:Alt>
               <rdf:li xml:lang="x-default">sozai-1</rdf:li>
            </rdf:Alt>
         </dc:title>
         <xmpMM:PreservedFileName>sozai-1_tri.svg</xmpMM:PreservedFileName>
         <xmpMM:InstanceID>xmp.iid:99ed49d0-43fd-460f-b0ad-cec1e158d61f</xmpMM:InstanceID>
         <xmpMM:DocumentID>xmp.did:99ed49d0-43fd-460f-b0ad-cec1e158d61f</xmpMM:DocumentID>
         <xmpMM:OriginalDocumentID>xmp.did:99ed49d0-43fd-460f-b0ad-cec1e158d61f</xmpMM:OriginalDocumentID>
         <xmpMM:History>
            <rdf:Seq>
               <rdf:li>
                  <rdf:Description>
                     <stEvt:action>saved</stEvt:action>
                     <stEvt:instanceID>xmp.iid:99ed49d0-43fd-460f-b0ad-cec1e158d61f</stEvt:instanceID>
                     <stEvt:when>2017-08-04T17:40:34+09:00</stEvt:when>
                     <stEvt:softwareAgent>Adobe Bridge CC 2017 (Macintosh)</stEvt:softwareAgent>
                     <stEvt:changed>/metadata</stEvt:changed>
                  </rdf:Description>
               </rdf:li>
            </rdf:Seq>
         </xmpMM:History>
         <xmp:MetadataDate>2017-08-04T17:40:34+09:00</xmp:MetadataDate>
      </rdf:Description>
   </rdf:RDF>
</x:xmpmeta>
                                                                                                    
                                                                                                    
                                                                                                    
                                                                                                    
                                                                                                    
                                                                                                    
                                                                                                    
                                                                                                    
                                                                                                    
                                                                                                    
                                                                                                    
                                                                                                    
                                                                                                    
                                                                                                    
                                                                                                    
                                                                                                    
                                                                                                    
                                                                                                    
                                                                                                    
                                                                                                    
                           
<?xpacket end="w"?></metadata>
<polyline points="0 263.5 0 0 1 0 1 262.5"/><polyline points="14 249.5 14 0 13 0 13 250.5"/><polyline points="27 236.5 27 0 26 0 26 237.5"/><polyline points="40 223.5 40 0 39 0 39 224.5"/><polyline points="53 210.5 53 0 52 0 52 211.5"/><polyline points="66 197.5 66 0 65 0 65 198.5"/><polyline points="79 184.5 79 0 78 0 78 185.5"/><polyline points="92 171.5 92 0 91 0 91 172.5"/><polyline points="105 158.5 105 0 104 0 104 159.5"/><polyline points="118 145.5 118 0 117 0 117 146.5"/><polyline points="131 132.5 131 0 130 0 130 133.5"/><polyline points="144 119.5 144 0 143 0 143 120.5"/><polyline points="157 106.5 157 0 156 0 156 107.5"/><polyline points="170 93.5 170 0 169 0 169 94.5"/><polyline points="183 80.5 183 0 182 0 182 81.5"/><polyline points="196 67.5 196 0 195 0 195 68.5"/><polyline points="209 54.5 209 0 208 0 208 55.5"/><polyline points="222 41.5 222 0 221 0 221 42.5"/><polyline points="235 28.5 235 0 234 0 234 29.5"/><polyline points="248 15.5 248 0 247 0 247 16.5"/><polyline points="261 2.5 261 0 260 0 260 3.5"/><line x1="247" y1="16.5" x2="235" y2="28.5"/><line x1="143" y1="120.5" x2="131" y2="132.5"/><line x1="234" y1="29.5" x2="222" y2="41.5"/><line x1="156" y1="107.5" x2="144" y2="119.5"/><line x1="221" y1="42.5" x2="209" y2="54.5"/><line x1="195" y1="68.5" x2="183" y2="80.5"/><line x1="208" y1="55.5" x2="196" y2="67.5"/><line x1="182" y1="81.5" x2="170" y2="93.5"/><line x1="169" y1="94.5" x2="157" y2="106.5"/><line x1="78" y1="185.5" x2="79" y2="184.5"/><line x1="91" y1="172.5" x2="92" y2="171.5"/><line x1="104" y1="159.5" x2="105" y2="158.5"/><line x1="117" y1="146.5" x2="118" y2="145.5"/><line x1="65" y1="198.5" x2="66" y2="197.5"/><line x1="52" y1="211.5" x2="53" y2="210.5"/><line x1="13" y1="250.5" x2="14" y2="249.5"/><line x1="26" y1="237.5" x2="27" y2="236.5"/><line x1="130" y1="133.5" x2="131" y2="132.5"/><line x1="39" y1="224.5" x2="40" y2="223.5"/><line x1="156" y1="107.5" x2="157" y2="106.5"/><line x1="221" y1="42.5" x2="222" y2="41.5"/><line x1="234" y1="29.5" x2="235" y2="28.5"/><line x1="247" y1="16.5" x2="248" y2="15.5"/><line x1="260" y1="3.5" x2="261" y2="2.5"/><line x1="143" y1="120.5" x2="144" y2="119.5"/><line x1="208" y1="55.5" x2="209" y2="54.5"/><line x1="169" y1="94.5" x2="170" y2="93.5"/><line x1="195" y1="68.5" x2="196" y2="67.5"/><line x1="182" y1="81.5" x2="183" y2="80.5"/><line x1="39" y1="224.5" x2="27" y2="236.5"/><line x1="26" y1="237.5" x2="14" y2="249.5"/><line x1="104" y1="159.5" x2="92" y2="171.5"/><line y1="263.5" x2="1" y2="262.5"/><line x1="13" y1="250.5" x2="1" y2="262.5"/><line x1="117" y1="146.5" x2="105" y2="158.5"/><line x1="130" y1="133.5" x2="118" y2="145.5"/><line x1="260" y1="3.5" x2="248" y2="15.5"/><line x1="52" y1="211.5" x2="40" y2="223.5"/><line x1="78" y1="185.5" x2="66" y2="197.5"/><line x1="91" y1="172.5" x2="79" y2="184.5"/><line x1="65" y1="198.5" x2="53" y2="210.5"/></svg>